<svg width="535" height="123" viewBox="0 0 535 123" fill="none" xmlns="http://www.w3.org/2000/svg">
<path d="M225.343 10.3096C207.894 14.9346 203.137 13.0394 198.167 10.8309C197.593 8.20018 192.752 6.08851 186.574 5.7268C186.648 5.43996 186.691 5.13244 186.691 4.81067C186.691 4.7914 186.689 4.77293 186.689 4.75366C187.197 4.24943 187.51 3.55491 187.51 2.78752C187.51 1.24853 186.247 0 184.689 0C183.132 0 181.87 1.24853 181.87 2.78752C181.87 3.55391 182.183 4.24783 182.689 4.75206C182.689 4.77173 182.687 4.791 182.687 4.81087C182.687 5.13284 182.729 5.44016 182.804 5.727C176.221 6.1124 171.154 8.48482 171.154 11.355C171.154 11.467 171.164 11.5781 171.179 11.6885C171.174 11.6858 171.169 11.6834 171.164 11.6808C171.164 11.6808 170.58 12.2844 169.902 12.994C169.476 13.3828 169.079 13.7893 168.713 14.2108C167.263 11.907 166.455 9.12936 164.131 7.19513C155.442 0.28644 145.6 14.3477 156.174 19.218C157.676 19.9248 159.774 21.0264 161.575 22.3329C160.503 22.8644 159.754 23.9341 159.689 25.1845C159.64 25.5488 159.689 25.9302 159.817 26.3025C160.231 27.7137 161.546 28.7466 163.107 28.7466C163.233 28.7466 163.357 28.7388 163.48 28.7257C164.659 28.632 165.939 27.8887 167.048 26.0916C168.968 29.7978 173.08 32.7361 178.251 34.09C177.257 34.5934 176.42 35.2093 175.801 35.9082C173.617 36.8235 172.271 38.0747 172.271 39.4549C172.271 42.2603 177.831 44.5343 184.689 44.5343C191.549 44.5343 197.108 42.2603 197.108 39.4549C197.108 38.0747 195.761 36.8235 193.577 35.9082C193.098 35.3668 192.486 34.8765 191.774 34.4479C210.125 31.9262 213.136 19.5087 232.622 13.0839C234.103 12.2555 229.661 9.37003 225.343 10.3096ZM166.009 19.7162C162.767 17.1531 156.745 15.7325 156.628 12.3808C156.553 9.50954 160.735 8.97178 162.869 10.4126C164.996 11.7057 166.134 13.8732 167.718 15.5095C166.849 16.8101 166.261 18.226 166.009 19.7162ZM194.751 15.856C191.907 17.0501 188.085 17.7079 183.99 17.7079C177.548 17.7079 172.877 16.3004 170.864 14.6779C171.108 14.4214 171.353 14.1657 171.576 13.9326C174.87 15.3582 179.297 16.1613 183.99 16.1613C189.757 16.1613 195.01 14.9686 198.349 12.9358L198.352 12.9372C198.171 13.8744 196.798 14.9963 194.751 15.856Z" fill="url(#paint0_radial_12_70)"/>
<path d="M72.9645 121.985H53.0968L19.8677 71.6809V121.985H0V40.4294H19.8677L53.0968 90.9662V40.4294H72.9645V121.985Z" fill="black"/>
<path d="M140.463 40.4294V56.3456H107.234V73.5398H132.097V88.9912H107.234V121.985H87.3661V40.4294H140.463Z" fill="black"/>
<path d="M209.579 40.4294V56.3456H187.968V121.985H168.1V56.3456H146.49V40.4294H209.579Z" fill="black"/>
<path d="M238.32 123C237.648 123 236.776 122.899 235.702 122.698C234.628 122.497 233.52 122.094 232.379 121.49C231.305 120.953 230.398 120.08 229.66 118.872C228.922 117.664 228.552 116.053 228.552 114.039C228.552 112.361 228.888 110.179 229.559 107.494C230.231 104.742 231.372 100.748 232.983 95.5126C234.191 91.5523 235.366 87.6591 236.507 83.833C237.716 79.9398 238.689 75.9123 239.427 71.7506C240.233 67.5889 240.636 63.1587 240.636 58.46C240.636 55.7079 240.468 53.3922 240.132 51.5127C239.797 49.6332 239.159 48.2236 238.219 47.2839C237.346 46.277 236.104 45.7736 234.493 45.7736C232.882 45.7736 231.473 46.2099 230.264 47.0825C229.056 47.9551 228.049 49.1298 227.243 50.6065C226.438 52.0161 225.834 53.5935 225.431 55.3388C225.028 57.084 224.827 58.8292 224.827 60.5745C224.827 63.5279 225.33 65.978 226.337 67.9246C223.048 67.9246 220.665 67.1526 219.188 65.6088C217.711 64.0649 216.973 62.1519 216.973 59.8696C216.973 57.8559 217.476 55.7751 218.483 53.6271C219.49 51.4791 220.866 49.5325 222.611 47.7873C224.424 45.9749 226.505 44.5318 228.854 43.4578C231.204 42.3167 233.721 41.7461 236.407 41.7461C240.971 41.7461 244.428 43.4242 246.778 46.7804C249.195 50.1366 250.403 54.9025 250.403 61.0779C250.403 65.7095 249.765 70.5424 248.49 75.5767C247.282 80.5439 245.738 85.981 243.858 91.8879C243.187 94.0359 242.381 96.4188 241.441 99.0366C240.569 101.587 239.763 104.239 239.025 106.991C238.353 109.676 238.018 112.361 238.018 115.046C238.018 116.321 238.152 117.194 238.42 117.664C238.756 118.201 239.36 118.469 240.233 118.469C242.045 118.469 243.959 117.697 245.972 116.153C248.053 114.609 250.135 112.529 252.216 109.911C254.297 107.293 256.277 104.373 258.156 101.151C260.103 97.9291 261.882 94.64 263.493 91.2838C265.104 87.8605 266.447 84.6385 267.521 81.6179C268.595 78.5302 269.3 75.8452 269.636 73.563C272.187 73.563 274.167 74.2678 275.577 75.6774C276.986 77.087 277.691 78.4295 277.691 79.7049C277.691 80.3761 277.389 81.5172 276.785 83.1282C276.248 84.7392 275.308 87.1221 273.965 90.2769C272.891 92.8277 271.784 95.5462 270.643 98.4325C269.501 101.252 268.528 104.071 267.722 106.89C266.984 109.642 266.615 112.227 266.615 114.643C266.615 115.986 266.783 116.959 267.118 117.563C267.521 118.167 268.226 118.469 269.233 118.469C271.112 118.469 273.261 117.529 275.677 115.65C278.161 113.838 280.712 111.354 283.33 108.199C285.948 104.977 288.499 101.386 290.983 97.4257C293.467 93.3982 295.715 89.2365 297.729 84.9406C299.743 80.6446 301.321 76.4158 302.462 72.2541C303.67 68.0924 304.274 64.2999 304.274 60.8765C304.274 57.1847 303.603 54.5668 302.26 53.023C300.985 51.4791 299.374 50.3716 297.427 49.7003C298.635 47.7537 299.911 46.3441 301.254 45.4715C302.663 44.5318 303.905 44.0619 304.979 44.0619C306.523 44.0619 308.101 45.0688 309.712 47.0825C311.39 49.0291 312.229 52.1168 312.229 56.3456C312.229 59.9032 311.524 63.9978 310.115 68.6294C308.772 73.2609 306.892 78.0939 304.476 83.1282C302.126 88.0954 299.408 92.9619 296.32 97.7277C293.299 102.426 290.043 106.689 286.552 110.515C283.129 114.341 279.671 117.362 276.181 119.577C272.69 121.859 269.367 123 266.212 123C264.467 123 262.889 122.631 261.479 121.892C260.137 121.221 259.063 120.214 258.257 118.872C257.519 117.596 257.15 116.086 257.15 114.341C257.15 113.535 257.25 112.696 257.452 111.824C257.653 110.951 257.888 110.079 258.156 109.206C254.867 113.368 251.544 116.69 248.188 119.174C244.898 121.725 241.609 123 238.32 123Z" fill="url(#paint1_linear_12_70)"/>
<path d="M315.415 117.261C312.462 117.261 310.246 116.388 308.769 114.643C307.293 112.898 306.554 110.783 306.554 108.3C306.554 106.756 306.823 104.809 307.36 102.46C307.897 100.111 308.635 97.6606 309.575 95.1099C310.582 92.492 311.723 90.042 312.999 87.7598C314.274 85.4775 315.65 83.6316 317.127 82.222C318.604 80.7453 320.081 80.0069 321.558 80.0069C322.363 80.0069 323.068 80.2754 323.672 80.8124C324.276 81.2823 324.578 81.9871 324.578 82.9268C324.578 83.7994 324.041 85.1084 322.967 86.8536C321.96 88.5988 320.752 90.6125 319.342 92.8948C318 95.177 316.791 97.5599 315.717 100.044C314.71 102.46 314.207 104.776 314.207 106.991C314.207 109.139 314.576 110.582 315.315 111.32C316.12 111.992 317.261 112.327 318.738 112.327C321.021 112.327 323.504 111.186 326.189 108.904C328.875 106.622 331.661 102.628 334.547 96.9222L336.058 98.5332C333.708 104.44 330.721 109.038 327.096 112.327C323.471 115.616 319.577 117.261 315.415 117.261ZM327.297 71.8513C326.022 71.8513 324.847 71.5493 323.773 70.9452C322.766 70.2739 322.262 69.267 322.262 67.9246C322.262 66.3136 323.135 64.9375 324.88 63.7964C326.626 62.6553 328.438 62.0848 330.318 62.0848C331.526 62.0848 332.533 62.3532 333.339 62.8902C334.211 63.4272 334.648 64.4005 334.648 65.8101C334.648 67.2198 333.876 68.5958 332.332 69.9383C330.788 71.2136 329.11 71.8513 327.297 71.8513Z" fill="url(#paint2_linear_12_70)"/>
<path d="M343.724 119.375C340.368 119.375 337.649 118.67 335.568 117.261C333.554 115.918 332.111 114.207 331.238 112.126C330.366 109.978 329.929 107.796 329.929 105.581C329.929 103.635 330.198 102.124 330.735 101.05C331.272 99.9764 331.943 99.2045 332.749 98.7346C333.554 98.1976 334.293 97.7948 334.964 97.5263C335.702 97.2579 336.24 96.9558 336.575 96.6202C338.253 94.8749 339.965 92.8612 341.711 90.579C343.523 88.2296 345.067 85.6454 346.342 82.8261V81.8193C346.342 79.1343 346.779 77.2548 347.651 76.1808C348.591 75.0397 349.665 74.4692 350.874 74.4692C351.679 74.4692 352.25 74.6705 352.586 75.0733C352.988 75.476 353.223 75.9459 353.29 76.4829C353.29 76.8856 353.19 77.3555 352.988 77.8925C352.854 78.4295 352.787 79.1679 352.787 80.1076C352.787 82.1213 353.257 84.4371 354.197 87.055C355.204 89.6057 356.177 92.3242 357.117 95.2106C358.124 98.0969 358.627 101.05 358.627 104.071C358.627 104.876 358.594 105.615 358.526 106.286C358.459 106.957 358.359 107.595 358.224 108.199C360.305 107.662 362.353 106.521 364.367 104.776C366.381 102.963 368.294 100.312 370.106 96.8215L371.315 97.7277C370.039 101.554 368.193 104.642 365.776 106.991C363.36 109.273 360.54 110.683 357.318 111.22C356.244 113.972 354.465 116.019 351.981 117.362C349.565 118.704 346.812 119.375 343.724 119.375ZM343.02 114.945C344.362 114.945 345.604 114.609 346.745 113.938C347.886 113.267 348.793 112.294 349.464 111.018C346.712 110.414 344.228 109.34 342.013 107.796C339.797 106.253 338.086 104.675 336.877 103.064C335.937 103.265 335.468 104.172 335.468 105.783C335.468 107.998 336.105 110.079 337.381 112.025C338.656 113.972 340.536 114.945 343.02 114.945ZM350.27 107.998C350.404 107.528 350.471 106.991 350.471 106.387C350.538 105.716 350.572 105.212 350.572 104.876C350.504 101.856 350.102 98.8688 349.363 95.9154C348.625 92.9619 347.886 89.9413 347.148 86.8536C345.94 88.9344 344.53 91.1831 342.919 93.5996C341.308 96.0161 339.797 97.9627 338.388 99.4394C339.462 101.252 341.039 102.963 343.12 104.574C345.201 106.185 347.584 107.326 350.27 107.998Z" fill="url(#paint3_linear_12_70)"/>
<path d="M371.877 118.066C370.4 118.066 369.326 116.925 368.655 114.643C368.051 112.361 367.749 109.709 367.749 106.689C367.749 103.601 368.252 99.8757 369.259 95.5126C370.333 91.1495 371.743 86.5515 373.488 81.7186C375.301 76.8856 377.281 72.1534 379.429 67.5218C381.644 62.8902 383.893 58.695 386.176 54.936C388.525 51.1099 390.74 48.0558 392.821 45.7736C394.97 43.4913 396.849 42.3502 398.46 42.3502C399.87 42.3502 400.944 43.1222 401.683 44.666C402.421 46.2099 402.79 47.8209 402.79 49.499C402.79 51.3113 402.354 53.56 401.481 56.2449C400.676 58.8628 399.534 61.682 398.058 64.7026C396.581 67.7232 394.835 70.7102 392.821 73.6637C390.875 76.55 388.727 79.2014 386.377 81.6179C384.095 84.0344 381.712 85.981 379.228 87.4577C378.355 89.7399 377.65 91.8879 377.113 93.9016C376.643 95.8482 376.308 97.6942 376.106 99.4394C375.905 101.185 375.804 102.896 375.804 104.574C375.804 104.91 375.804 105.279 375.804 105.682C375.871 106.018 375.905 106.353 375.905 106.689C376.173 106.286 376.61 105.246 377.214 103.568C377.818 101.889 378.624 99.9428 379.631 97.7277C380.705 95.4455 382.014 93.2304 383.558 91.0824C385.102 88.8673 386.914 87.055 388.995 85.6454C391.076 84.1686 393.459 83.4303 396.144 83.4303C398.427 83.4303 400.206 83.9672 401.481 85.0412C402.757 86.0481 403.663 87.3235 404.2 88.8673C404.737 90.3441 405.005 91.8543 405.005 93.3982C405.005 95.5462 404.636 97.5599 403.898 99.4394C403.227 101.319 402.522 103.098 401.783 104.776C401.112 106.387 400.776 107.931 400.776 109.407C400.776 110.616 401.045 111.455 401.582 111.924C402.119 112.394 402.757 112.629 403.495 112.629C404.972 112.629 406.684 111.891 408.63 110.414C410.644 108.937 412.625 106.991 414.571 104.574C416.585 102.091 418.297 99.3723 419.707 96.4188L421.318 98.1305C419.774 101.487 417.961 104.574 415.88 107.394C413.799 110.213 411.517 112.461 409.033 114.14C406.549 115.818 403.864 116.657 400.978 116.657C398.427 116.657 396.48 115.986 395.137 114.643C393.795 113.301 393.124 111.622 393.124 109.609C393.124 108.199 393.358 106.655 393.828 104.977C394.365 103.232 394.869 101.487 395.339 99.7414C395.809 97.9962 396.044 96.4188 396.044 95.0092C396.044 93.3982 395.674 92.2907 394.936 91.6865C394.265 91.0824 393.426 90.7804 392.419 90.7804C390.74 90.7804 389.23 91.4516 387.887 92.7941C386.545 94.0695 385.337 95.7476 384.262 97.8284C383.188 99.9093 382.181 102.124 381.242 104.474C380.302 106.756 379.362 108.937 378.422 111.018C377.482 113.099 376.475 114.777 375.401 116.053C374.394 117.395 373.22 118.066 371.877 118.066ZM381.342 81.0138C383.088 79.4699 384.766 77.624 386.377 75.476C387.988 73.3281 389.465 71.113 390.808 68.8307C392.217 66.4814 393.426 64.2327 394.433 62.0848C395.507 59.8697 396.346 57.8895 396.95 56.1443C397.554 54.399 397.89 53.0565 397.957 52.1168C397.957 52.0497 397.957 52.0161 397.957 52.0161C397.957 51.949 397.957 51.8819 397.957 51.8147C397.554 51.8147 396.681 52.6538 395.339 54.3319C394.063 55.9429 392.553 58.158 390.808 60.9772C389.129 63.7293 387.418 66.8506 385.672 70.341C383.994 73.8315 382.551 77.3891 381.342 81.0138Z" fill="url(#paint4_linear_12_70)"/>
<path d="M425.662 117.261C422.507 117.261 420.292 116.22 419.016 114.14C417.808 111.992 417.204 109.474 417.204 106.588C417.204 103.299 417.808 99.4394 419.016 95.0092C420.224 90.579 421.802 85.9474 423.749 81.1145C425.763 76.2144 427.944 71.4486 430.294 66.817C432.71 62.1183 435.127 57.8895 437.544 54.1305C439.96 50.3716 442.176 47.3845 444.19 45.1694C446.271 42.8872 447.949 41.7461 449.224 41.7461C450.097 41.7461 450.835 42.216 451.44 43.1557C452.044 44.0283 452.514 45.1023 452.849 46.3777C453.252 47.5859 453.453 48.727 453.453 49.801C453.453 51.6134 452.984 53.9963 452.044 56.9497C451.171 59.8361 449.896 63.0245 448.217 66.5149C446.606 70.0054 444.66 73.5966 442.377 77.2884C440.162 80.9131 437.678 84.37 434.926 87.6591C432.241 90.9482 429.354 93.801 426.266 96.2174C425.998 97.8955 425.729 99.5736 425.461 101.252C425.259 102.863 425.158 104.339 425.158 105.682C425.158 108.098 425.561 109.877 426.367 111.018C427.172 112.092 428.213 112.629 429.488 112.629C431.167 112.629 432.878 111.857 434.624 110.314C436.436 108.703 438.148 106.689 439.759 104.272C441.437 101.789 442.881 99.238 444.089 96.6202L446.506 97.9291C443.619 103.903 440.397 108.635 436.839 112.126C433.281 115.549 429.555 117.261 425.662 117.261ZM428.079 89.9749C430.361 87.4913 432.509 84.8063 434.523 81.92C436.604 78.9665 438.484 75.9795 440.162 72.9589C441.907 69.9383 443.418 67.0184 444.693 64.1992C445.969 61.3799 446.942 58.8628 447.613 56.6477C448.352 54.3655 448.754 52.5531 448.822 51.2106C448.822 51.1435 448.822 51.1099 448.822 51.1099C448.822 51.0428 448.822 50.9757 448.822 50.9086C448.285 50.9086 447.412 51.6805 446.203 53.2243C445.062 54.7011 443.686 56.7484 442.075 59.3662C440.464 61.9841 438.786 64.9711 437.04 68.3273C435.362 71.6835 433.717 75.2411 432.106 79.0001C430.562 82.6919 429.22 86.3502 428.079 89.9749Z" fill="url(#paint5_linear_12_70)"/>
<path d="M449.74 117.261C446.786 117.261 444.571 116.388 443.094 114.643C441.617 112.898 440.879 110.783 440.879 108.3C440.879 106.756 441.147 104.809 441.684 102.46C442.221 100.111 442.96 97.6606 443.899 95.1099C444.906 92.492 446.047 90.042 447.323 87.7598C448.598 85.4775 449.975 83.6316 451.451 82.222C452.928 80.7453 454.405 80.0069 455.882 80.0069C456.688 80.0069 457.392 80.2754 457.996 80.8124C458.601 81.2823 458.903 81.9871 458.903 82.9268C458.903 83.7994 458.366 85.1084 457.292 86.8536C456.285 88.5988 455.076 90.6125 453.667 92.8948C452.324 95.177 451.116 97.5599 450.042 100.044C449.035 102.46 448.531 104.776 448.531 106.991C448.531 109.139 448.9 110.582 449.639 111.32C450.444 111.992 451.586 112.327 453.062 112.327C455.345 112.327 457.829 111.186 460.514 108.904C463.199 106.622 465.985 102.628 468.871 96.9222L470.382 98.5332C468.032 104.44 465.045 109.038 461.42 112.327C457.795 115.616 453.902 117.261 449.74 117.261ZM461.622 71.8513C460.346 71.8513 459.171 71.5493 458.097 70.9452C457.09 70.2739 456.587 69.267 456.587 67.9246C456.587 66.3136 457.459 64.9375 459.205 63.7964C460.95 62.6553 462.763 62.0848 464.642 62.0848C465.851 62.0848 466.858 62.3532 467.663 62.8902C468.536 63.4272 468.972 64.4005 468.972 65.8101C468.972 67.2198 468.2 68.5958 466.656 69.9383C465.112 71.2136 463.434 71.8513 461.622 71.8513Z" fill="url(#paint6_linear_12_70)"/>
<path d="M478.049 119.375C474.692 119.375 471.974 118.67 469.893 117.261C467.879 115.918 466.435 114.207 465.563 112.126C464.69 109.978 464.254 107.796 464.254 105.581C464.254 103.635 464.522 102.124 465.059 101.05C465.596 99.9764 466.268 99.2045 467.073 98.7346C467.879 98.1976 468.617 97.7948 469.288 97.5263C470.027 97.2579 470.564 96.9558 470.9 96.6202C472.578 94.8749 474.29 92.8612 476.035 90.579C477.847 88.2296 479.391 85.6454 480.667 82.8261V81.8193C480.667 79.1343 481.103 77.2548 481.976 76.1808C482.916 75.0397 483.99 74.4692 485.198 74.4692C486.004 74.4692 486.574 74.6705 486.91 75.0733C487.313 75.476 487.548 75.9459 487.615 76.4829C487.615 76.8856 487.514 77.3555 487.313 77.8925C487.178 78.4295 487.111 79.1679 487.111 80.1076C487.111 82.1213 487.581 84.4371 488.521 87.055C489.528 89.6057 490.501 92.3242 491.441 95.2106C492.448 98.0969 492.952 101.05 492.952 104.071C492.952 104.876 492.918 105.615 492.851 106.286C492.784 106.957 492.683 107.595 492.549 108.199C494.63 107.662 496.677 106.521 498.691 104.776C500.705 102.963 502.618 100.312 504.431 96.8215L505.639 97.7277C504.364 101.554 502.517 104.642 500.101 106.991C497.684 109.273 494.865 110.683 491.643 111.22C490.568 113.972 488.79 116.019 486.306 117.362C483.889 118.704 481.137 119.375 478.049 119.375ZM477.344 114.945C478.687 114.945 479.928 114.609 481.07 113.938C482.211 113.267 483.117 112.294 483.788 111.018C481.036 110.414 478.552 109.34 476.337 107.796C474.122 106.253 472.41 104.675 471.202 103.064C470.262 103.265 469.792 104.172 469.792 105.783C469.792 107.998 470.43 110.079 471.705 112.025C472.981 113.972 474.86 114.945 477.344 114.945ZM484.594 107.998C484.728 107.528 484.795 106.991 484.795 106.387C484.862 105.716 484.896 105.212 484.896 104.876C484.829 101.856 484.426 98.8688 483.688 95.9154C482.949 92.9619 482.211 89.9413 481.472 86.8536C480.264 88.9344 478.854 91.1831 477.243 93.5996C475.632 96.0161 474.122 97.9627 472.712 99.4394C473.786 101.252 475.364 102.963 477.445 104.574C479.526 106.185 481.909 107.326 484.594 107.998Z" fill="url(#paint7_linear_12_70)"/>
<path d="M510.733 118.872C507.779 118.872 505.396 117.999 503.583 116.254C501.771 114.509 500.865 111.857 500.865 108.3C500.865 105.548 501.368 102.124 502.375 98.0298C503.449 93.9352 504.792 89.7064 506.403 85.3433C505.933 85.2091 505.362 85.1084 504.691 85.0412C504.087 84.907 503.483 84.7056 502.879 84.4371V81.3158C503.953 81.4501 504.825 81.5508 505.497 81.6179C506.235 81.685 506.973 81.7521 507.712 81.8193C509.122 78.2617 510.632 74.8384 512.243 71.5493C513.921 68.1931 515.566 65.206 517.177 62.5882C518.855 59.9703 520.433 57.923 521.91 56.4463C523.387 54.9025 524.696 54.1305 525.837 54.1305C526.508 54.1305 527.146 54.399 527.75 54.936C528.354 55.4059 528.656 56.1107 528.656 57.0504C528.656 58.3929 527.951 60.306 526.542 62.7896C525.199 65.2731 523.521 68.1931 521.507 71.5493C519.493 74.8384 517.546 78.3624 515.667 82.1213C516.204 82.1213 516.741 82.1213 517.278 82.1213C517.815 82.1213 518.318 82.1213 518.788 82.1213C521.742 82.1213 524.394 82.0878 526.743 82.0207C529.16 81.8864 531.61 81.685 534.094 81.4165V84.7392C530.402 85.0748 527.012 85.3433 523.924 85.5447C520.836 85.746 517.882 85.8803 515.062 85.9474C514.861 85.9474 514.66 85.9474 514.458 85.9474C514.257 85.9474 514.056 85.9474 513.854 85.9474C512.444 89.2365 511.203 92.6263 510.129 96.1167C509.122 99.5401 508.618 102.896 508.618 106.185C508.618 108.937 509.054 110.884 509.927 112.025C510.8 113.166 512.176 113.737 514.056 113.737C517.412 113.737 520.836 112.227 524.326 109.206C527.884 106.118 530.972 101.957 533.59 96.7209L535 97.7277C533.255 101.688 531.073 105.279 528.455 108.501C525.904 111.723 523.118 114.24 520.097 116.053C517.076 117.932 513.955 118.872 510.733 118.872Z" fill="url(#paint8_linear_12_70)"/>
<defs>
<radialGradient id="paint0_radial_12_70" cx="0" cy="0" r="1" gradientUnits="userSpaceOnUse" gradientTransform="translate(267.5 61.5) rotate(90) scale(61.5 267.5)">
<stop stop-color="#FFF500"/>
<stop offset="1" stop-color="#B79A00"/>
</radialGradient>
<linearGradient id="paint1_linear_12_70" x1="267.5" y1="0" x2="267.5" y2="123" gradientUnits="userSpaceOnUse">
<stop stop-color="#FFF500"/>
<stop offset="1" stop-color="#B79A00"/>
</linearGradient>
<linearGradient id="paint2_linear_12_70" x1="267.5" y1="0" x2="267.5" y2="123" gradientUnits="userSpaceOnUse">
<stop stop-color="#FFF500"/>
<stop offset="1" stop-color="#B79A00"/>
</linearGradient>
<linearGradient id="paint3_linear_12_70" x1="267.5" y1="0" x2="267.5" y2="123" gradientUnits="userSpaceOnUse">
<stop stop-color="#FFF500"/>
<stop offset="1" stop-color="#B79A00"/>
</linearGradient>
<linearGradient id="paint4_linear_12_70" x1="267.5" y1="0" x2="267.5" y2="123" gradientUnits="userSpaceOnUse">
<stop stop-color="#FFF500"/>
<stop offset="1" stop-color="#B79A00"/>
</linearGradient>
<linearGradient id="paint5_linear_12_70" x1="267.5" y1="0" x2="267.5" y2="123" gradientUnits="userSpaceOnUse">
<stop stop-color="#FFF500"/>
<stop offset="1" stop-color="#B79A00"/>
</linearGradient>
<linearGradient id="paint6_linear_12_70" x1="267.5" y1="0" x2="267.5" y2="123" gradientUnits="userSpaceOnUse">
<stop stop-color="#FFF500"/>
<stop offset="1" stop-color="#B79A00"/>
</linearGradient>
<linearGradient id="paint7_linear_12_70" x1="267.5" y1="0" x2="267.5" y2="123" gradientUnits="userSpaceOnUse">
<stop stop-color="#FFF500"/>
<stop offset="1" stop-color="#B79A00"/>
</linearGradient>
<linearGradient id="paint8_linear_12_70" x1="267.5" y1="0" x2="267.5" y2="123" gradientUnits="userSpaceOnUse">
<stop stop-color="#FFF500"/>
<stop offset="1" stop-color="#B79A00"/>
</linearGradient>
</defs>
</svg>
