<svg width="30" height="40" viewBox="0 0 30 40" fill="none" xmlns="http://www.w3.org/2000/svg">
<path d="M27.5 17.5H25V10C25 4.5 20.5 0 15 0C9.5 0 5 4.5 5 10V17.5H2.5C1.25 17.5 0 18.75 0 20V37.5C0 38.75 1.25 40 2.5 40H27.5C28.75 40 30 38.75 30 37.5V20C30 18.75 28.75 17.5 27.5 17.5ZM17.5 35H12.5L13.5 29.5C12.25 29 11.25 27.5 11.25 26.25C11.25 24.25 13 22.5 15 22.5C17 22.5 18.75 24.25 18.75 26.25C18.75 27.75 18 29 16.5 29.5L17.5 35ZM20 17.5H10V10C10 7.25 12.25 5 15 5C17.75 5 20 7.25 20 10V17.5Z" fill="#B79A00"/>
</svg>
