<svg width="42" height="42" viewBox="0 0 42 42" fill="none" xmlns="http://www.w3.org/2000/svg">
<path d="M42 21C42 32.5973 32.5973 42 21 42C9.40267 42 0 32.5973 0 21C0 9.40267 9.40267 0 21 0C32.5998 0 42 9.40267 42 21Z" fill="#2081E2"/>
<path d="M10.3605 21.7057L10.4511 21.5632L15.914 13.0172C15.9939 12.892 16.1816 12.905 16.242 13.0409C17.1546 15.0863 17.9421 17.63 17.5732 19.2137C17.4157 19.8653 16.9842 20.7477 16.4987 21.5632C16.4362 21.6819 16.3671 21.7984 16.2938 21.9106C16.2592 21.9624 16.201 21.9926 16.1384 21.9926H10.5202C10.3691 21.9926 10.2807 21.8286 10.3605 21.7057Z" fill="white"/>
<path d="M34.7107 23.2936V24.6464C34.7107 24.7241 34.6632 24.7931 34.5941 24.8233C34.1713 25.0046 32.7236 25.6691 32.1216 26.5062C30.5854 28.6444 29.4117 31.7016 26.7881 31.7016H15.8428C11.9636 31.7016 8.82001 28.5473 8.82001 24.655V24.5299C8.82001 24.4263 8.90413 24.3422 9.00771 24.3422H15.1093C15.2301 24.3422 15.3185 24.4544 15.3078 24.573C15.2646 24.97 15.338 25.3757 15.5257 25.7446C15.8881 26.4804 16.639 26.9399 17.4502 26.9399H20.4708V24.5817H17.4847C17.3316 24.5817 17.241 24.4048 17.3294 24.2796C17.3618 24.23 17.3985 24.1782 17.4373 24.12C17.7199 23.7187 18.1234 23.0952 18.5247 22.3853C18.7987 21.9063 19.0641 21.395 19.2777 20.8815C19.3208 20.7887 19.3553 20.6938 19.3899 20.601C19.4481 20.437 19.5085 20.2838 19.5517 20.1307C19.5949 20.0012 19.6293 19.8653 19.6639 19.738C19.7653 19.3021 19.8084 18.8404 19.8084 18.3615C19.8084 18.1738 19.7998 17.9774 19.7826 17.7897C19.7739 17.5848 19.748 17.3798 19.7221 17.1748C19.7049 16.9936 19.6725 16.8145 19.638 16.6268C19.5949 16.3528 19.5344 16.0809 19.4654 15.8069L19.4416 15.7034C19.3899 15.5156 19.3467 15.3366 19.2863 15.1489C19.1158 14.5598 18.9195 13.9859 18.7124 13.4487C18.6369 13.2351 18.5506 13.0301 18.4643 12.8252C18.337 12.5167 18.2075 12.2362 18.0889 11.9708C18.0285 11.8499 17.9767 11.7399 17.9249 11.6277C17.8666 11.5004 17.8062 11.3731 17.7458 11.2523C17.7027 11.1596 17.653 11.0732 17.6185 10.9869L17.2496 10.3051C17.1978 10.2124 17.2841 10.1023 17.3855 10.1304L19.6941 10.7561H19.7006C19.7049 10.7561 19.707 10.7582 19.7092 10.7582L20.0134 10.8424L20.3478 10.9373L20.4708 10.9718V9.59963C20.4708 8.93725 21.0016 8.40002 21.6575 8.40002C21.9854 8.40002 22.2831 8.53379 22.4968 8.75169C22.7103 8.96963 22.8441 9.26737 22.8441 9.59963V11.6364L23.0901 11.7054C23.1095 11.7119 23.1289 11.7205 23.1462 11.7334C23.2066 11.7788 23.2929 11.8456 23.4029 11.9276C23.4892 11.9967 23.582 12.0808 23.6942 12.1671C23.9164 12.3462 24.1818 12.5771 24.4731 12.8424C24.5507 12.9093 24.6262 12.9784 24.6953 13.0474C25.0707 13.3969 25.4914 13.8069 25.8928 14.2599C26.0049 14.3873 26.115 14.5167 26.2272 14.6526C26.3393 14.7907 26.458 14.9266 26.5616 15.0626C26.6975 15.2438 26.8442 15.4315 26.9715 15.6278C27.0319 15.7206 27.101 15.8155 27.1592 15.9083C27.3232 16.1564 27.4678 16.4132 27.6059 16.67C27.6641 16.7886 27.7245 16.918 27.7763 17.0453C27.9295 17.3884 28.0503 17.7379 28.128 18.0875C28.1517 18.163 28.1689 18.245 28.1776 18.3183V18.3356C28.2035 18.4391 28.2121 18.5492 28.2207 18.6613C28.2553 19.0195 28.238 19.3776 28.1603 19.738C28.128 19.8912 28.0848 20.0357 28.033 20.1889C27.9812 20.3356 27.9295 20.4888 27.8626 20.6334C27.7332 20.9332 27.5799 21.2332 27.3987 21.5136C27.3405 21.6172 27.2714 21.7273 27.2024 21.8308C27.1268 21.9408 27.0492 22.0444 26.9801 22.1458C26.8852 22.2753 26.7838 22.4112 26.6803 22.532C26.5875 22.6593 26.4926 22.7866 26.389 22.8988C26.2444 23.0692 26.1063 23.2311 25.9618 23.3864C25.8755 23.4878 25.7827 23.5914 25.6878 23.6842C25.595 23.7877 25.5001 23.8805 25.4137 23.9668C25.2692 24.1113 25.1484 24.2235 25.047 24.3163L24.8097 24.5342C24.7751 24.5644 24.7298 24.5817 24.6824 24.5817H22.8441V26.9399H25.157C25.6748 26.9399 26.1668 26.7565 26.5637 26.4199C26.6997 26.3013 27.293 25.7878 27.9942 25.0132C28.0179 24.9873 28.0482 24.9679 28.0827 24.9593L34.4712 23.1124C34.5899 23.0779 34.7107 23.1685 34.7107 23.2936Z" fill="white"/>
</svg>
