<svg width="42" height="42" viewBox="0 0 42 42" fill="none" xmlns="http://www.w3.org/2000/svg">
<path d="M21 0C23.7578 0 26.4885 0.543181 29.0364 1.59853C31.5842 2.65388 33.8992 4.20073 35.8492 6.15076C37.7993 8.10079 39.3461 10.4158 40.4015 12.9636C41.4568 15.5115 42 18.2422 42 21C42 26.5695 39.7875 31.911 35.8492 35.8492C31.911 39.7875 26.5695 42 21 42C18.2422 42 15.5115 41.4568 12.9636 40.4015C10.4158 39.3461 8.10079 37.7993 6.15076 35.8492C2.21249 31.911 0 26.5695 0 21C0 15.4305 2.21249 10.089 6.15076 6.15076C10.089 2.21249 15.4305 0 21 0ZM21 4.2C16.5444 4.2 12.2712 5.97 9.12061 9.12061C5.97 12.2712 4.2 16.5444 4.2 21C4.2 25.4556 5.97 29.7288 9.12061 32.8794C12.2712 36.03 16.5444 37.8 21 37.8C25.4556 37.8 29.7288 36.03 32.8794 32.8794C36.03 29.7288 37.8 25.4556 37.8 21C37.8 16.5444 36.03 12.2712 32.8794 9.12061C29.7288 5.97 25.4556 4.2 21 4.2ZM29.4 16.8V31.5C29.4 32.057 29.1787 32.5911 28.7849 32.9849C28.3911 33.3787 27.857 33.6 27.3 33.6H14.7C14.143 33.6 13.6089 33.3787 13.2151 32.9849C12.8212 32.5911 12.6 32.057 12.6 31.5V16.8H29.4ZM24.15 8.4L26.25 10.5H31.5V14.7H10.5V10.5H15.75L17.85 8.4H24.15Z" fill="#B79A00"/>
</svg>
