<svg width="30" height="40" viewBox="0 0 30 40" fill="none" xmlns="http://www.w3.org/2000/svg">
<path d="M20 17.5V10C20 7.25 17.75 5 15 5C12.25 5 10 7.25 10 10H5C5 4.475 9.475 0 15 0C20.525 0 25 4.475 25 10V17.5H27.5C28.875 17.5 30 18.625 30 20V37.5C30 38.875 28.875 40 27.5 40H2.5C1.125 40 0 38.875 0 37.5V20C0 18.625 1.125 17.5 2.5 17.5H20ZM17.5 35L16.6 29.625C17.875 29.025 18.75 27.75 18.75 26.25C18.75 24.175 17.075 22.5 15 22.5C12.925 22.5 11.25 24.175 11.25 26.25C11.25 27.75 12.125 29.025 13.4 29.625L12.5 35H17.5Z" fill="#B79A00"/>
</svg>
